<?xml version="1.0" standalone="no"?>
<!DOCTYPE svg PUBLIC "-//W3C//DTD SVG 20010904//EN"
 "http://www.w3.org/TR/2001/REC-SVG-20010904/DTD/svg10.dtd">
<svg version="1.0" xmlns="http://www.w3.org/2000/svg"
 width="983.000000pt" height="983.000000pt" viewBox="0 0 983.000000 983.000000"
 preserveAspectRatio="xMidYMid meet">
<metadata>
Created by potrace 1.11, written by Peter Selinger 2001-2013
</metadata>
<g transform="translate(0.000000,983.000000) scale(0.100000,-0.100000)"
fill="#000000" stroke="none">
<path d="M8659 8176 c-2 -2 -33 -7 -69 -11 -36 -4 -72 -8 -80 -10 -8 -2 -44
-6 -80 -10 -36 -3 -76 -8 -90 -10 -14 -2 -50 -6 -80 -10 -30 -3 -71 -8 -90
-10 -19 -3 -55 -7 -80 -10 -25 -3 -61 -7 -80 -10 -19 -2 -60 -7 -90 -10 -30
-4 -66 -8 -80 -10 -14 -2 -50 -6 -80 -10 -30 -3 -86 -10 -125 -15 -38 -6 -90
-12 -115 -14 -25 -3 -67 -7 -95 -11 -27 -3 -86 -11 -130 -16 -44 -6 -91 -12
-105 -14 -14 -2 -52 -6 -85 -10 -33 -3 -71 -8 -85 -10 -14 -2 -50 -6 -80 -10
-30 -4 -66 -8 -80 -10 -14 -2 -50 -6 -80 -10 -30 -3 -71 -8 -90 -10 -19 -2
-71 -9 -115 -14 -44 -6 -104 -13 -134 -16 -30 -4 -61 -8 -70 -10 -9 -2 -47 -6
-83 -9 -37 -4 -76 -9 -87 -11 -11 -2 -46 -6 -78 -10 -32 -3 -69 -8 -83 -10
-14 -2 -46 -6 -72 -9 -27 -3 -69 -9 -95 -12 -27 -3 -59 -7 -73 -9 -14 -2 -47
-7 -75 -11 -27 -3 -57 -7 -65 -9 -124 -23 -189 -36 -207 -39 -105 -21 -368
-102 -503 -156 -118 -47 -281 -135 -363 -196 l-85 -64 -68 28 c-38 16 -82 32
-99 37 -100 28 -211 49 -367 69 -187 25 -552 25 -763 2 -16 -2 -61 -7 -99 -10
-38 -4 -72 -9 -75 -10 -3 -2 -31 -7 -61 -10 -30 -4 -66 -8 -80 -10 -14 -3 -47
-7 -75 -11 -27 -3 -63 -8 -80 -10 -103 -16 -285 -41 -355 -50 -51 -7 -103 -14
-141 -21 -15 -2 -47 -6 -70 -9 -24 -3 -55 -8 -69 -10 -14 -2 -45 -6 -70 -10
-52 -6 -94 -12 -255 -35 -103 -15 -134 -19 -165 -25 -14 -2 -49 -7 -79 -10
-30 -4 -62 -8 -71 -10 -9 -2 -41 -6 -71 -10 -30 -3 -79 -10 -109 -15 -53 -9
-92 -14 -175 -25 -22 -2 -49 -6 -60 -9 -11 -2 -42 -7 -70 -10 -27 -4 -61 -9
-75 -11 -14 -2 -45 -6 -70 -9 -25 -3 -54 -8 -65 -10 -11 -2 -42 -7 -70 -10
-27 -4 -61 -9 -75 -11 -14 -2 -79 -11 -145 -20 -66 -9 -131 -18 -145 -20 -14
-3 -47 -8 -73 -11 l-48 -7 6 -61 c3 -33 7 -72 10 -86 2 -14 7 -52 10 -85 3
-33 8 -71 10 -85 2 -14 6 -52 10 -85 4 -33 8 -73 10 -90 2 -16 7 -57 10 -90 3
-33 8 -73 10 -90 2 -16 7 -51 10 -77 3 -27 7 -67 10 -90 3 -24 7 -64 10 -90 9
-84 15 -142 20 -178 3 -19 7 -61 10 -93 4 -32 8 -66 10 -75 1 -9 6 -51 10 -92
4 -41 9 -82 10 -90 2 -8 6 -44 10 -80 3 -36 8 -81 11 -100 2 -19 6 -57 9 -85
3 -27 8 -67 10 -87 10 -76 14 -114 20 -168 3 -30 8 -71 10 -90 2 -19 7 -60 10
-90 4 -30 8 -66 10 -80 2 -14 7 -52 10 -85 3 -33 8 -73 10 -90 2 -16 9 -75 15
-130 6 -55 13 -113 15 -130 2 -16 7 -57 10 -90 3 -33 8 -76 10 -95 7 -51 13
-108 20 -170 3 -30 8 -66 10 -80 2 -14 7 -54 10 -90 3 -36 7 -76 10 -90 2 -14
7 -50 10 -80 3 -30 7 -68 9 -85 2 -16 7 -59 11 -95 4 -36 8 -76 10 -90 2 -14
7 -54 10 -90 4 -36 8 -72 10 -80 2 -9 6 -47 9 -85 4 -39 8 -81 11 -95 2 -14 7
-54 11 -90 3 -36 7 -72 9 -80 1 -8 6 -49 10 -90 4 -41 9 -82 10 -90 2 -8 6
-44 10 -80 3 -36 8 -76 10 -90 2 -14 6 -54 10 -90 3 -36 8 -76 10 -90 3 -14 7
-52 10 -85 3 -33 7 -69 9 -80 2 -11 7 -49 10 -85 4 -36 8 -76 10 -90 3 -14 7
-54 11 -90 4 -36 8 -78 10 -95 2 -16 7 -57 10 -90 4 -33 9 -62 11 -64 3 -3
328 33 380 43 11 2 51 7 89 11 39 4 77 8 85 10 8 1 42 6 75 9 33 4 71 9 85 11
14 2 52 6 85 10 32 4 66 8 75 10 8 1 46 6 83 10 37 3 76 8 85 10 9 1 44 6 77
9 33 4 112 14 175 22 63 8 135 17 160 20 25 2 61 7 80 9 71 10 101 14 240 30
25 3 61 7 80 10 19 2 94 11 165 20 72 8 148 17 170 20 22 3 60 8 85 10 25 3
61 8 80 11 19 3 55 8 80 10 25 2 79 9 120 14 41 5 98 12 125 15 28 4 61 8 75
10 14 2 52 7 85 10 33 4 71 8 85 10 83 11 110 15 155 20 51 6 283 41 321 49
12 2 37 7 55 10 57 10 92 17 134 27 22 5 49 11 60 13 28 5 164 42 265 72 103
31 269 98 328 132 38 22 48 23 80 14 111 -33 272 -47 537 -46 242 0 320 5 535
29 19 2 60 7 90 10 56 6 69 8 150 20 75 11 93 14 140 20 25 3 56 8 70 10 14 2
43 6 65 9 22 3 59 8 82 11 23 3 55 8 70 10 34 4 235 32 283 39 98 15 540 77
575 82 22 2 51 7 65 9 32 5 107 16 143 21 15 2 46 6 67 9 22 3 59 7 83 11 23
3 69 9 102 14 33 5 80 12 105 15 25 3 56 8 70 10 14 2 49 7 79 10 30 3 57 8
60 9 3 2 35 7 71 11 36 3 72 8 80 10 8 2 33 6 55 9 34 5 193 27 290 41 17 2
53 7 80 10 28 4 57 8 65 10 8 3 40 7 70 10 30 4 93 12 140 19 74 11 85 15 84
32 -2 22 -12 100 -18 130 -2 11 -7 47 -10 79 -4 32 -8 61 -10 64 -2 3 -6 29
-10 56 -3 28 -8 59 -10 70 -2 11 -7 45 -11 75 -4 30 -9 62 -10 70 -2 8 -6 35
-9 60 -3 25 -8 54 -10 65 -2 11 -7 43 -10 70 -4 28 -11 79 -17 115 -15 100
-28 183 -34 230 -4 32 -16 110 -20 131 -2 9 -6 40 -10 70 -3 30 -8 61 -10 69
-2 8 -7 35 -10 60 -6 46 -9 63 -20 140 -9 59 -13 87 -20 135 -3 23 -7 50 -9
60 -2 11 -7 43 -10 70 -4 28 -11 75 -16 105 -5 30 -19 120 -30 200 -11 80 -22
156 -25 170 -2 14 -7 45 -10 70 -3 25 -12 86 -20 135 -8 50 -17 110 -20 135
-3 25 -8 52 -10 60 -2 8 -7 38 -10 65 -3 28 -7 61 -10 75 -3 14 -7 41 -9 60
-5 40 -14 100 -22 148 -3 17 -7 49 -10 70 -2 20 -9 62 -14 92 -5 30 -12 73
-15 95 -2 22 -7 51 -9 65 -3 14 -8 48 -11 75 -6 51 -27 192 -45 300 -5 33 -12
78 -15 100 -3 22 -10 67 -15 100 -5 33 -12 83 -16 110 -3 28 -8 58 -9 67 -2 9
-11 68 -20 130 -9 62 -18 124 -20 138 -4 25 -73 491 -80 540 -2 14 -16 104
-30 200 -15 96 -27 183 -28 193 -1 18 -2 19 -8 13z"/>
</g>
</svg>
